<svg id="visual" viewBox="0 0 960 540" width="960" height="540" xmlns="http://www.w3.org/2000/svg" xmlns:xlink="http://www.w3.org/1999/xlink" version="1.1"><rect x="0" y="0" width="960" height="540" fill="#001220"></rect><defs><linearGradient id="grad1_0" x1="43.8%" y1="100%" x2="100%" y2="0%"><stop offset="14.444444444444446%" stop-color="#001220" stop-opacity="1"></stop><stop offset="85.55555555555554%" stop-color="#001220" stop-opacity="1"></stop></linearGradient></defs><defs><linearGradient id="grad2_0" x1="0%" y1="100%" x2="56.3%" y2="0%"><stop offset="14.444444444444446%" stop-color="#001220" stop-opacity="1"></stop><stop offset="85.55555555555554%" stop-color="#001220" stop-opacity="1"></stop></linearGradient></defs><g transform="translate(960, 540)"><path d="M-162 0C-149.2 -10 -136.4 -19.9 -130.6 -29.8C-124.9 -39.7 -126.2 -49.6 -124.3 -59.9C-122.5 -70.1 -117.5 -80.8 -109.5 -87.3C-101.4 -93.8 -90.1 -96.1 -82.9 -104C-75.7 -111.9 -72.5 -125.5 -65.5 -136C-58.5 -146.6 -47.6 -154.1 -36 -157.9C-24.5 -161.8 -12.2 -161.9 0 -162L0 0Z" fill="#FBAE3C"></path></g><g transform="translate(0, 0)"><path d="M162 0C160.9 12 159.9 24 157 35.8C154.1 47.7 149.3 59.4 141.5 68.1C133.6 76.8 122.6 82.4 116.5 92.9C110.4 103.4 109.3 118.8 101 126.7C92.7 134.5 77.2 134.7 64.2 133.3C51.2 132 40.8 129.1 30.5 133.6C20.2 138.1 10.1 150 0 162L0 0Z" fill="#FBAE3C"></path></g></svg>